<svg width="32" height="32" viewBox="0 0 32 32" xmlns="http://www.w3.org/2000/svg">
  <rect width="32" height="32" rx="6" fill="#185FA5"/>

  <!-- Socle torche -->
  <rect x="11" y="22" width="10" height="3" rx="1.5" fill="white"/>
  <rect x="13" y="24" width="6" height="5" rx="1" fill="white"/>
  <rect x="14.5" y="28" width="3" height="3" rx="0.5" fill="#B5D4F4"/>

  <!-- Flamme extérieure -->
  <path d="M16 21 C13 16 10 10 13 5 C14 3 16 1 16 1 C16 1 18 3 19 5 C22 10 19 16 16 21Z" fill="#B5D4F4"/>

  <!-- Flamme intérieure -->
  <path d="M16 17 C14.5 13 13.5 9 15 6 C15.5 5 16 4 16 4 C16 4 16.5 5 17 6 C18.5 9 17.5 13 16 17Z" fill="white"/>

  <!-- Pointe -->
  <ellipse cx="16" cy="4" rx="1.5" ry="2" fill="white" opacity="0.9"/>
</svg>
